<svg id="Layer_1" data-name="Layer 1" xmlns="http://www.w3.org/2000/svg" viewBox="0 0 1000 365"><defs><style>.cls-1{fill:#fff;}</style></defs><title>virta_logo_white_borderless_RGB</title><path class="cls-1" d="M915.39,278H833.93v-49.8H866.6v-89c-69,11.73-121.75,69.71-121.75,138.83H696.07c0-51.14,20.42-99.09,57.54-135.08A198.33,198.33,0,0,1,890.81,87h24.58Z"/><polygon class="cls-1" points="729.79 136.81 662.21 136.81 662.21 277.99 613.44 277.99 613.44 136.81 551.98 136.81 551.98 87.02 729.79 87.02 729.79 136.81"/><path class="cls-1" d="M534,136.81c-45.8.38-84.06,39.48-84.06,87.65V278H401.12V87H449.9v31.65A129.45,129.45,0,0,1,534,87Z"/><rect class="cls-1" x="322.75" y="87.02" width="48.78" height="190.96"/><path class="cls-1" d="M304.7,87c0,51.14-20.43,99.09-57.54,135.08A198.38,198.38,0,0,1,110,278H85.38V87h81.45v49.8H134.16v89c69-11.74,121.75-69.7,121.75-138.83Z"/><path class="cls-1" d="M39,39.68H961V325.32H39ZM0,365.14H1000V-.14H0Z"/></svg>